<svg width="24" height="24" viewBox="0 0 24 24" fill="none" xmlns="http://www.w3.org/2000/svg">
<rect width="24" height="24" rx="12" fill="#E9E8E9"/>
<path d="M11.5 14.5C12.7882 14.5 14.0236 13.9996 14.9345 13.1088C15.8454 12.218 16.3571 11.0098 16.3571 9.75C16.3571 8.49022 15.8454 7.28204 14.9345 6.39124C14.0236 5.50045 12.7882 5 11.5 5C10.2118 5 8.97637 5.50045 8.06548 6.39124C7.15459 7.28204 6.64286 8.49022 6.64286 9.75C6.64286 11.0098 7.15459 12.218 8.06548 13.1088C8.97637 13.9996 10.2118 14.5 11.5 14.5ZM9.76585 16.2812C6.02813 16.2812 3 19.2426 3 22.8979C3 23.5064 3.50469 24 4.12701 24H18.873C19.4953 24 20 23.5064 20 22.8979C20 19.2426 16.9719 16.2812 13.2342 16.2812H9.76585Z" fill="#666666"/>
</svg>
