<svg width="283" height="234" viewBox="0 0 283 234" fill="none" xmlns="http://www.w3.org/2000/svg">
<path d="M117 234C181.617 234 234 181.617 234 117C234 52.3827 181.617 0 117 0C52.3827 0 0 52.3827 0 117C0 181.617 52.3827 234 117 234Z" fill="#F3F3F3"/>
<path d="M63.96 53.415H274.561C276.53 53.4151 278.418 54.1975 279.811 55.5898C281.203 56.9822 281.985 58.8707 281.985 60.8398V99.8398C281.985 101.809 281.203 103.697 279.811 105.09C278.418 106.482 276.53 107.265 274.561 107.265H63.96C61.9908 107.265 60.1024 106.482 58.71 105.09C57.3176 103.697 56.5352 101.809 56.5352 99.8398V60.8398C56.5352 58.8707 57.3175 56.9823 58.71 55.5898C60.1024 54.1974 61.9908 53.4151 63.96 53.415Z" fill="white" stroke="#E6E6E6" stroke-width="0.75"/>
<path d="M123.24 65.895H163.801C166.178 65.8951 168.105 67.8223 168.105 70.1997C168.105 72.5772 166.178 74.5052 163.801 74.5054H123.24C120.863 74.5052 118.936 72.5772 118.936 70.1997C118.936 67.8224 120.863 65.8952 123.24 65.895Z" fill="#B4DAFF" stroke="#E6E6E6" stroke-width="0.75"/>
<path d="M123.24 86.175H191.881C194.258 86.1752 196.185 88.1024 196.186 90.4797C196.186 92.8572 194.258 94.7852 191.881 94.7854H123.24C120.863 94.7852 118.936 92.8572 118.936 90.4797C118.936 88.1024 120.863 86.1752 123.24 86.175Z" fill="#DEE9FC" stroke="#E6E6E6" stroke-width="0.75"/>
<path d="M83.46 58.095C95.7455 58.095 105.705 68.0546 105.705 80.3401C105.705 92.6256 95.7454 102.585 83.46 102.585C71.1744 102.585 61.2149 92.6256 61.2148 80.3401C61.2148 68.0545 71.1744 58.095 83.46 58.095Z" fill="#27AAE1" stroke="#E6E6E6" stroke-width="0.75"/>
<path d="M78.3604 71.4534C80.0526 70.6213 81.9768 70.3869 83.8193 70.7883C85.6619 71.1898 87.3141 72.2036 88.5068 73.6643C89.6995 75.125 90.3628 76.9466 90.3877 78.8323C90.4126 80.7179 89.7973 82.5564 88.6436 84.0481L88.4424 84.3088L88.6758 84.5422L93.208 89.0754L92.1953 90.0881L87.4297 85.3225L87.168 85.5266C85.7083 86.6674 83.9092 87.287 82.0566 87.2874H82.0557C80.1699 87.2903 78.3385 86.6547 76.8604 85.4836C75.3823 84.3126 74.3446 82.6755 73.916 80.8391C73.4874 79.0026 73.6929 77.0748 74.5 75.3704C75.3071 73.6661 76.6681 72.2855 78.3604 71.4534ZM82.0566 72.009C80.2195 72.009 78.4573 72.7393 77.1582 74.0383C75.8593 75.3373 75.129 77.0988 75.1289 78.9358C75.1289 80.3058 75.5357 81.6453 76.2969 82.7844C77.058 83.9236 78.1395 84.8119 79.4053 85.3362C80.6709 85.8604 82.0636 85.9969 83.4072 85.7297C84.7509 85.4625 85.9854 84.8029 86.9541 83.8342C87.9229 82.8655 88.5833 81.6311 88.8506 80.2874C89.1178 78.9438 88.9803 77.551 88.4561 76.2854C87.9318 75.0197 87.0434 73.9372 85.9043 73.176C84.7654 72.4152 83.4263 72.0091 82.0566 72.009Z" fill="white" stroke="#E6E6E6" stroke-width="0.75"/>
<path d="M40.5596 123.49H251.16C255.33 123.49 258.71 126.87 258.71 131.04V170.04C258.71 174.209 255.33 177.589 251.16 177.59H40.5596C36.3899 177.589 33.0098 174.209 33.0098 170.04V131.04C33.0099 127.001 36.1819 123.702 40.1709 123.5L40.5596 123.49Z" fill="white" stroke="#E6E6E6" stroke-width="0.5"/>
<path d="M99.8398 135.97H140.4C142.847 135.97 144.83 137.953 144.83 140.4C144.83 142.846 142.847 144.83 140.4 144.83H99.8398C97.3934 144.83 95.4102 142.846 95.4102 140.4C95.4103 137.953 97.3935 135.97 99.8398 135.97Z" fill="#B4DAFF" stroke="#E6E6E6" stroke-width="0.5"/>
<path d="M99.8398 156.25H168.48C170.927 156.25 172.91 158.233 172.91 160.68C172.91 163.126 170.927 165.11 168.48 165.11H99.8398C97.3934 165.11 95.4102 163.126 95.4102 160.68C95.4103 158.233 97.3935 156.25 99.8398 156.25Z" fill="#DEE9FC" stroke="#E6E6E6" stroke-width="0.5"/>
<path d="M60.0596 128.17C72.4141 128.17 82.4297 138.186 82.4297 150.54C82.4296 162.895 72.4141 172.91 60.0596 172.91C47.705 172.91 37.6895 162.895 37.6895 150.54C37.6895 138.186 47.705 128.17 60.0596 128.17Z" fill="#27AAE1" stroke="#E6E6E6" stroke-width="0.5"/>
<path d="M54.9043 141.541C56.6219 140.696 58.5752 140.459 60.4453 140.866C62.3155 141.274 63.9925 142.303 65.2031 143.785C66.4137 145.268 67.087 147.116 67.1123 149.03C67.1376 150.944 66.5136 152.81 65.3428 154.324L65.208 154.499L69.9854 159.276L68.7959 160.465L64.0195 155.688L63.8447 155.825C62.3631 156.983 60.5367 157.612 58.6562 157.612H58.6553C56.7413 157.615 54.8831 156.97 53.3828 155.781C51.8825 154.593 50.8286 152.931 50.3936 151.067C49.9586 149.204 50.1674 147.247 50.9863 145.518C51.8055 143.788 53.1867 142.386 54.9043 141.541ZM58.6562 142.334C56.8522 142.334 55.1213 143.051 53.8457 144.326C52.5703 145.602 51.8536 147.332 51.8535 149.136C51.8535 150.481 52.2526 151.796 53 152.915C53.7474 154.034 54.8099 154.905 56.0527 155.42C57.2956 155.935 58.6639 156.07 59.9834 155.808C61.3027 155.545 62.5146 154.896 63.4658 153.945C64.4169 152.994 65.0647 151.782 65.3271 150.463C65.5896 149.144 65.4552 147.776 64.9404 146.533C64.4256 145.29 63.5532 144.228 62.4346 143.48C61.3161 142.733 60.0014 142.334 58.6562 142.334Z" fill="white" stroke="#E6E6E6" stroke-width="0.5"/>
</svg>
